<svg xmlns='http://www.w3.org/2000/svg' viewBox='0 0 670 242' role='img' aria-label='MANI' preserveAspectRatio='xMinYMid meet'>
	<path d="M 545 14.554 C 541.425 15.321, 536.475 16.690, 534 17.596 C 528.554 19.589, 515 27.775, 515 29.071 C 515 29.582, 514.494 30, 513.876 30 C 511.698 30, 501.243 42.861, 496.524 51.346 C 493.726 56.377, 487.427 74.872, 486.426 80.994 C 486.111 82.922, 485.242 87.650, 484.496 91.500 C 482.350 102.568, 479.295 118.709, 477.492 128.500 C 474.653 143.919, 475.096 143.269, 472.378 136 C 469.577 128.505, 464.411 114.331, 462.356 108.500 C 461.580 106.300, 460.545 103.600, 460.055 102.500 C 459.566 101.400, 458.709 99.150, 458.153 97.500 C 456.836 93.596, 450.881 77.412, 447.483 68.500 C 446.015 64.650, 443.560 57.900, 442.028 53.500 C 440.496 49.100, 438.666 44.263, 437.961 42.750 L 436.679 40 420.467 40 L 404.255 40 402.530 48.750 C 399.993 61.616, 397.198 75.303, 395.026 85.500 C 393.971 90.450, 392.373 98.550, 391.474 103.500 C 390.575 108.450, 389.011 116.325, 387.999 121 C 386.987 125.675, 385.416 133.100, 384.509 137.500 C 383.601 141.900, 381.955 149.550, 380.851 154.500 C 379.746 159.450, 378.148 166.650, 377.300 170.500 C 372.907 190.427, 366.536 201.102, 353 211.212 C 345.690 216.672, 331.617 222.863, 322.739 224.523 C 320.670 224.910, 318.692 225.690, 318.342 226.256 C 317.444 227.708, 344.842 226.425, 352.500 224.656 C 377.270 218.937, 393.921 206.482, 403.526 186.490 C 408.772 175.571, 411.525 163.802, 421.070 111.500 C 424.018 95.344, 424.434 94.354, 425.948 99.882 C 426.608 102.293, 427.523 104.993, 427.981 105.882 C 428.438 106.772, 430.506 112, 432.576 117.500 C 434.646 123, 437.838 131.269, 439.670 135.876 C 441.501 140.482, 443 144.650, 443 145.137 C 443 145.623, 443.843 147.929, 444.872 150.261 C 445.902 152.592, 448.416 159, 450.460 164.500 C 452.503 170, 454.653 175.625, 455.237 177 C 455.821 178.375, 457.747 183.550, 459.518 188.500 L 462.737 197.500 478.234 197.775 L 493.730 198.049 494.321 194.775 C 494.646 192.974, 496.072 186.100, 497.490 179.500 C 498.908 172.900, 501.169 161.875, 502.515 155 C 503.860 148.125, 505.836 138.450, 506.906 133.500 C 507.976 128.550, 509.604 120.450, 510.524 115.500 C 511.443 110.550, 513.017 102.450, 514.020 97.500 C 515.024 92.550, 516.613 84.675, 517.552 80 C 522.493 55.408, 530.488 38.783, 542.423 28.277 C 548.285 23.116, 559.648 17.620, 568 15.905 C 573.807 14.712, 574.180 14.499, 571.500 13.903 C 566.295 12.747, 551.757 13.104, 545 14.554 M 76.523 44.250 C 75.895 48.338, 73.146 63.519, 70.954 75 C 69.533 82.449, 66.058 102.238, 64.984 109 C 64.504 112.025, 63.466 117.650, 62.677 121.500 C 61.889 125.350, 60.482 133, 59.552 138.500 C 57.705 149.423, 51.823 167.942, 48.865 172.154 C 47.839 173.614, 47 175.126, 47 175.513 C 47 175.901, 45.987 177.383, 44.750 178.806 C 38.602 185.879, 31.989 191.266, 25.820 194.227 C 22.069 196.027, 19 197.838, 19 198.250 C 19 198.662, 22.965 199, 27.812 199 C 37.173 199, 51.196 196.023, 54.079 193.424 C 54.947 192.641, 55.991 192, 56.399 192 C 59.247 192, 73.368 179.683, 77.500 173.596 C 83.268 165.096, 88.578 150.096, 90.456 137 C 90.811 134.525, 91.720 128.450, 92.477 123.500 C 93.233 118.550, 94.144 112.321, 94.501 109.658 C 94.858 106.995, 95.454 105.119, 95.825 105.489 C 96.196 105.859, 97.001 109.388, 97.613 113.331 C 98.923 121.778, 105.057 156.801, 107.974 172.500 C 109.098 178.550, 110.498 186.875, 111.084 191 C 111.671 195.125, 112.513 198.873, 112.955 199.330 C 113.646 200.042, 120.955 189.821, 135 168.503 C 136.925 165.581, 141.200 159.264, 144.500 154.464 C 147.800 149.665, 150.950 145.009, 151.500 144.119 C 152.050 143.228, 152.743 142.275, 153.041 142 C 153.338 141.725, 157.638 135.425, 162.596 128 C 174.390 110.337, 181 100.762, 181 101.340 C 181 101.597, 180.089 106.238, 178.976 111.653 C 170.982 150.553, 168.619 165.769, 169.480 172.788 C 171.435 188.708, 176.469 199.524, 186.685 209.750 C 190.668 213.738, 194.471 217, 195.135 217 C 195.799 217, 197.053 217.605, 197.921 218.345 C 200.253 220.331, 207.452 222.974, 216.500 225.165 C 224.524 227.108, 244 228.870, 244 227.653 C 244 227.296, 239.761 224.983, 234.579 222.512 C 213.923 212.664, 203.024 199.429, 200.004 180.523 C 198.725 172.518, 200.391 159.674, 206.947 127 C 207.995 121.775, 209.585 113.675, 210.479 109 C 211.373 104.325, 212.963 96.675, 214.012 92 C 215.062 87.325, 216.635 80.125, 217.508 76 C 218.381 71.875, 219.929 64.900, 220.948 60.500 C 221.967 56.100, 223.265 50.475, 223.833 48 C 224.400 45.525, 225.172 42.702, 225.548 41.728 C 226.189 40.064, 225.078 39.972, 207.435 40.228 L 188.639 40.500 178.306 55 C 172.623 62.975, 165.973 72.425, 163.530 76 C 161.086 79.575, 155.904 87, 152.015 92.500 C 148.125 98, 143.493 104.575, 141.721 107.112 C 139.950 109.648, 136.571 114.485, 134.213 117.862 C 131.855 121.238, 129.534 124, 129.057 124 C 128.579 124, 127.896 121.638, 127.538 118.750 C 127.181 115.862, 126.042 108.550, 125.007 102.500 C 120.909 78.551, 119.054 67.303, 118.493 63 C 118.171 60.525, 117.504 56.475, 117.011 54 C 116.518 51.525, 115.836 47.362, 115.496 44.750 L 114.877 40 96.027 40 L 77.176 40 76.523 44.250 M 295.820 41.750 C 295.001 42.712, 293.416 45.300, 292.297 47.500 C 291.179 49.700, 287.799 56, 284.787 61.500 C 281.775 67, 277.606 74.650, 275.521 78.500 C 273.437 82.350, 270.947 86.850, 269.988 88.500 C 268.139 91.681, 264.981 97.479, 258.006 110.500 C 255.649 114.900, 253.401 118.950, 253.011 119.500 C 252.621 120.050, 250.370 124.100, 248.009 128.500 C 242.336 139.069, 238.712 145.720, 236.276 150.031 C 235.178 151.972, 232.359 157.147, 230.010 161.531 C 227.662 165.914, 224.073 172.425, 222.036 176 C 219.998 179.575, 216.445 185.988, 214.140 190.250 L 209.948 198 226.858 198 C 242.077 198, 243.824 197.825, 244.339 196.250 C 244.654 195.287, 246.132 192.475, 247.623 190 C 250.828 184.680, 255.849 175.578, 259.629 168.235 L 262.339 162.970 291.420 163.235 L 320.500 163.500 321.275 169.500 C 321.701 172.800, 322.786 180.563, 323.687 186.750 L 325.324 198 342.046 198 L 358.768 198 357.357 190.750 C 356.581 186.763, 355.525 180.350, 355.011 176.500 C 354.497 172.650, 353.120 163.425, 351.951 156 C 348.239 132.424, 346.020 118.367, 343.941 105.253 C 342.829 98.239, 341.506 89.350, 341 85.500 C 340.494 81.650, 339.407 74.675, 338.584 70 C 337.761 65.325, 336.381 57.050, 335.517 51.611 C 334.653 46.173, 333.707 41.335, 333.414 40.861 C 333.122 40.388, 324.878 40, 315.096 40 C 299.391 40, 297.136 40.205, 295.820 41.750 M 561.578 41.250 C 561.381 41.938, 560.457 46.325, 559.524 51 C 558.591 55.675, 556.993 63.325, 555.973 68 C 554.218 76.042, 550.207 95.698, 547.404 110 C 546.703 113.575, 544.336 125.050, 542.143 135.500 C 538.069 154.914, 537.138 159.490, 534.413 173.500 C 532.998 180.774, 530.541 191.781, 529.328 196.275 C 528.882 197.930, 529.973 198.031, 545.614 197.775 L 562.377 197.500 564.037 190.500 C 565.691 183.520, 567.548 174.534, 569.098 166 C 569.548 163.525, 571.089 156.100, 572.524 149.500 C 573.958 142.900, 575.735 134.350, 576.472 130.500 C 577.208 126.650, 578.769 119, 579.941 113.500 C 583.391 97.303, 589.143 69.081, 590.621 61.094 C 591.375 57.021, 592.441 52.071, 592.990 50.094 C 593.540 48.117, 593.991 45.038, 593.994 43.250 L 594 40 577.969 40 C 566.002 40, 561.846 40.317, 561.578 41.250 M 306.750 82.259 C 305.788 83.728, 305 85.114, 305 85.339 C 305 85.564, 302.300 90.513, 299 96.337 C 295.700 102.162, 293 107.144, 293 107.410 C 293 107.676, 291.494 110.504, 289.654 113.696 C 287.814 116.888, 284.407 122.987, 282.084 127.250 L 277.860 135 297.002 135 L 316.144 135 315.512 129.250 C 315.164 126.088, 314.014 117.650, 312.957 110.500 C 311.900 103.350, 310.464 93.470, 309.767 88.544 L 308.500 79.588 306.750 82.259 M 615 155.737 C 611.537 157.073, 604.634 163.212, 602.849 166.544 C 600.716 170.522, 600.153 180.697, 601.823 185.056 C 604.784 192.780, 613.340 198.419, 622 198.353 C 636.723 198.242, 646.718 184.861, 642.617 170.753 C 640.765 164.383, 637.831 160.917, 631.394 157.495 C 626.827 155.066, 618.932 154.220, 615 155.737 M 615.894 159.118 C 607.796 161.392, 602.468 171.225, 604.153 180.786 C 606.895 196.344, 628.587 200.288, 637.482 186.847 C 639.506 183.789, 640 181.802, 640 176.718 C 640 171.215, 639.596 169.845, 636.891 166.166 C 635.181 163.841, 632.489 161.270, 630.908 160.452 C 627.076 158.471, 620.333 157.871, 615.894 159.118 M 612.219 176.250 C 612.451 186.347, 612.764 188.500, 614 188.500 C 615.080 188.500, 615.585 187.170, 615.805 183.750 C 616.093 179.265, 616.269 179, 618.962 179 C 621.159 179, 622.774 180.147, 626 184 C 628.302 186.750, 630.819 189, 631.593 189 C 633.370 189, 633.363 188.464, 631.554 186.261 C 630.758 185.293, 629.223 183.375, 628.142 182 L 626.176 179.500 629.213 176.964 C 633.167 173.662, 633.306 169.520, 629.569 166.306 C 627.287 164.343, 625.777 164, 619.413 164 L 611.938 164 612.219 176.250 M 616 172 L 616 177 620.845 177 C 626.087 177, 629 174.989, 629 171.371 C 629 168.174, 626.932 167, 621.300 167 L 616 167 616 172" stroke="none" fill="#050505" fill-rule="evenodd"/>
</svg>